<?xml version="1.0" standalone="no"?>
<!DOCTYPE svg PUBLIC "-//W3C//DTD SVG 20010904//EN"
 "http://www.w3.org/TR/2001/REC-SVG-20010904/DTD/svg10.dtd">
<svg version="1.0" xmlns="http://www.w3.org/2000/svg"
 width="1080.000000pt" height="1080.000000pt" viewBox="0 0 1080.000000 1080.000000"
 preserveAspectRatio="xMidYMid meet">
<metadata>
Created by potrace 1.11, written by Peter Selinger 2001-2013
</metadata>
<g transform="translate(0.000000,1080.000000) scale(0.100000,-0.100000)"
fill="#000000" stroke="none">
<path d="M0 5400 l0 -5400 5400 0 5400 0 0 5400 0 5400 -5400 0 -5400 0 0
-5400z m5390 1615 l0 -245 -175 0 c-96 0 -175 -4 -175 -8 0 -5 119 -458 265
-1006 146 -548 268 -1008 271 -1021 7 -26 38 -35 47 -12 145 378 587 1559 587
1567 0 9 -92 324 -131 448 l-11 32 -174 0 -174 0 0 245 0 245 885 0 885 0 -2
-242 -3 -243 -186 -3 -186 -2 273 -983 c150 -540 278 -999 284 -1019 7 -26 17
-38 29 -38 15 0 23 14 36 63 9 34 130 492 269 1017 l253 955 -211 5 -211 5 -3
243 -2 242 695 0 695 0 -2 -247 -3 -248 -202 -3 -202 -2 -9 -33 c-5 -17 -204
-681 -442 -1474 l-433 -1443 -478 0 -478 0 -24 78 c-13 42 -133 443 -267 889
-134 447 -246 810 -249 807 -3 -3 -153 -402 -332 -887 l-326 -882 -474 -3
-474 -2 -430 1475 -430 1475 -207 0 -208 0 0 250 0 250 920 0 920 0 0 -245z
m-2100 90 l0 -105 -285 0 -285 0 0 -1480 0 -1480 285 0 285 0 0 -105 0 -105
-755 0 -755 0 0 105 0 105 285 0 285 0 0 1480 0 1480 -285 0 -285 0 0 105 0
105 755 0 755 0 0 -105z"/>
</g>
</svg>
